<?xml version="1.0" encoding="utf-8"?>
<!-- Generator: Adobe Illustrator 21.0.2, SVG Export Plug-In . SVG Version: 6.00 Build 0)  -->
<svg version="1.1" id="Layer_1" xmlns="http://www.w3.org/2000/svg" xmlns:xlink="http://www.w3.org/1999/xlink" x="0px" y="0px"
	 viewBox="0 0 365.8 32.8" style="enable-background:new 0 0 365.8 32.8;" xml:space="preserve">
<style type="text/css">
	.st0{display:none;}
	.st1{display:inline;fill:#2591B7;}
	.st2{opacity:0.11;}
	.st3{display:none;opacity:0.11;}
	.st4{enable-background:new    ;}
	.st5{fill:#FFFFFF;}
	.st6{fill:url(#SVGID_1_);}
	.st7{fill:url(#SVGID_2_);}
	.st8{fill:url(#SVGID_3_);}
	.st9{fill:url(#SVGID_4_);}
	.st10{fill:url(#SVGID_5_);}
	.st11{fill:url(#SVGID_6_);}
	.st12{fill:url(#SVGID_7_);}
	.st13{fill:url(#SVGID_8_);}
</style>
<g class="st0">
	<rect x="-10.7" y="-21.1" class="st1" width="392" height="90.7"/>
</g>
<g class="st2">
	
		<image style="overflow:visible;" width="335" height="98" xlink:href="F1464721F20547B.png"  transform="matrix(1 0 0 1 62 -31.1006)">
	</image>
</g>
<g class="st3">
	
		<image style="display:inline;overflow:visible;" width="163" height="94" xlink:href="F1464721F20547E.png"  transform="matrix(1 0 0 1 -34 -31.1006)">
	</image>
</g>
<g>
	<g id="SED">
		<g>
			<g class="st4">
				<path class="st5" d="M112.9,10.2c-0.1-0.1-0.4-0.3-0.8-0.6c-0.4-0.2-0.8-0.5-1.4-0.7c-0.5-0.2-1.1-0.4-1.7-0.6
					c-0.6-0.2-1.2-0.2-1.9-0.2c-1.1,0-2,0.2-2.6,0.6c-0.6,0.4-0.8,1-0.8,1.8c0,0.4,0.1,0.8,0.3,1.1c0.2,0.3,0.5,0.5,0.9,0.8
					c0.4,0.2,0.9,0.4,1.5,0.6c0.6,0.2,1.3,0.4,2.1,0.6c1,0.3,2,0.6,2.8,0.9c0.9,0.3,1.6,0.7,2.2,1.2c0.6,0.5,1,1.1,1.4,1.7
					c0.3,0.7,0.5,1.5,0.5,2.5c0,1.1-0.2,2.1-0.6,2.9c-0.4,0.8-1,1.5-1.7,2c-0.7,0.5-1.6,0.9-2.5,1.1c-1,0.2-1.9,0.3-3,0.3
					c-1.6,0-3.2-0.2-4.7-0.7c-1.6-0.5-3-1.2-4.2-2l1.8-3.6c0.2,0.2,0.5,0.4,1,0.7c0.5,0.3,1,0.6,1.7,0.9s1.4,0.5,2.1,0.7
					c0.8,0.2,1.6,0.3,2.4,0.3c2.3,0,3.4-0.7,3.4-2.2c0-0.5-0.1-0.8-0.4-1.2c-0.3-0.3-0.6-0.6-1.1-0.8c-0.5-0.2-1.1-0.5-1.7-0.7
					c-0.7-0.2-1.4-0.4-2.3-0.7c-1-0.3-1.9-0.6-2.7-0.9s-1.4-0.7-1.9-1.2s-0.9-1-1.1-1.6s-0.4-1.3-0.4-2.1c0-1.1,0.2-2,0.6-2.9
					c0.4-0.8,1-1.5,1.7-2.1c0.7-0.6,1.5-1,2.5-1.3c0.9-0.3,2-0.4,3-0.4c1.5,0,2.9,0.2,4.1,0.7c1.3,0.5,2.4,1,3.3,1.7L112.9,10.2z"/>
				<path class="st5" d="M138.4,22.3v3.6h-14.8V4.6h14.5v3.6h-10.4v5.1h9v3.4h-9v5.5H138.4z"/>
			</g>
			<g>
			</g>
			<g class="st4">
				<path class="st5" d="M146.6,25.9V4.6h7.7c1.7,0,3.3,0.3,4.6,0.8c1.3,0.6,2.4,1.3,3.3,2.3c0.9,1,1.5,2.1,2,3.4s0.7,2.7,0.7,4.1
					c0,1.6-0.2,3.1-0.7,4.4c-0.5,1.3-1.2,2.4-2.1,3.4c-0.9,0.9-2,1.6-3.3,2.2c-1.3,0.5-2.7,0.8-4.3,0.8H146.6z M160.7,15.2
					c0-1-0.1-2-0.4-2.8c-0.3-0.9-0.7-1.6-1.2-2.2s-1.2-1.1-2-1.4c-0.8-0.3-1.7-0.5-2.7-0.5h-3.6v14h3.6c1,0,1.9-0.2,2.7-0.5
					s1.5-0.9,2-1.5s0.9-1.4,1.2-2.2C160.6,17.1,160.7,16.2,160.7,15.2z"/>
			</g>
		</g>
		<g>
			<g class="st4">
				<path class="st5" d="M112.9,10.2c-0.1-0.1-0.4-0.3-0.8-0.6c-0.4-0.2-0.8-0.5-1.4-0.7c-0.5-0.2-1.1-0.4-1.7-0.6
					c-0.6-0.2-1.2-0.2-1.9-0.2c-1.1,0-2,0.2-2.6,0.6c-0.6,0.4-0.8,1-0.8,1.8c0,0.4,0.1,0.8,0.3,1.1c0.2,0.3,0.5,0.5,0.9,0.8
					c0.4,0.2,0.9,0.4,1.5,0.6c0.6,0.2,1.3,0.4,2.1,0.6c1,0.3,2,0.6,2.8,0.9c0.9,0.3,1.6,0.7,2.2,1.2c0.6,0.5,1,1.1,1.4,1.7
					c0.3,0.7,0.5,1.5,0.5,2.5c0,1.1-0.2,2.1-0.6,2.9c-0.4,0.8-1,1.5-1.7,2c-0.7,0.5-1.6,0.9-2.5,1.1c-1,0.2-1.9,0.3-3,0.3
					c-1.6,0-3.2-0.2-4.7-0.7c-1.6-0.5-3-1.2-4.2-2l1.8-3.6c0.2,0.2,0.5,0.4,1,0.7c0.5,0.3,1,0.6,1.7,0.9s1.4,0.5,2.1,0.7
					c0.8,0.2,1.6,0.3,2.4,0.3c2.3,0,3.4-0.7,3.4-2.2c0-0.5-0.1-0.8-0.4-1.2c-0.3-0.3-0.6-0.6-1.1-0.8c-0.5-0.2-1.1-0.5-1.7-0.7
					c-0.7-0.2-1.4-0.4-2.3-0.7c-1-0.3-1.9-0.6-2.7-0.9s-1.4-0.7-1.9-1.2s-0.9-1-1.1-1.6s-0.4-1.3-0.4-2.1c0-1.1,0.2-2,0.6-2.9
					c0.4-0.8,1-1.5,1.7-2.1c0.7-0.6,1.5-1,2.5-1.3c0.9-0.3,2-0.4,3-0.4c1.5,0,2.9,0.2,4.1,0.7c1.3,0.5,2.4,1,3.3,1.7L112.9,10.2z"/>
				<path class="st5" d="M138.4,22.3v3.6h-14.8V4.6h14.5v3.6h-10.4v5.1h9v3.4h-9v5.5H138.4z"/>
			</g>
			<g>
			</g>
			<g class="st4">
				<path class="st5" d="M146.6,25.9V4.6h7.7c1.7,0,3.3,0.3,4.6,0.8c1.3,0.6,2.4,1.3,3.3,2.3c0.9,1,1.5,2.1,2,3.4s0.7,2.7,0.7,4.1
					c0,1.6-0.2,3.1-0.7,4.4c-0.5,1.3-1.2,2.4-2.1,3.4c-0.9,0.9-2,1.6-3.3,2.2c-1.3,0.5-2.7,0.8-4.3,0.8H146.6z M160.7,15.2
					c0-1-0.1-2-0.4-2.8c-0.3-0.9-0.7-1.6-1.2-2.2s-1.2-1.1-2-1.4c-0.8-0.3-1.7-0.5-2.7-0.5h-3.6v14h3.6c1,0,1.9-0.2,2.7-0.5
					s1.5-0.9,2-1.5s0.9-1.4,1.2-2.2C160.6,17.1,160.7,16.2,160.7,15.2z"/>
			</g>
		</g>
	</g>
	<g id="NYC_x2F_2017">
		<g>
			<g class="st4">
				<path class="st5" d="M179.4,12.2v13.7h-4.1V4.6h3.2l11.1,14V4.6h4.1v21.3h-3.4L179.4,12.2z"/>
				<path class="st5" d="M205.5,4.6l5.2,10.3l5.3-10.3h4.5l-7.7,13.9v7.4h-4.1v-7.5L201,4.6H205.5z"/>
				<path class="st5" d="M225.1,15.1c0-1.3,0.2-2.6,0.7-3.9c0.5-1.3,1.2-2.4,2.1-3.4c0.9-1,2-1.8,3.3-2.4c1.3-0.6,2.8-0.9,4.4-0.9
					c2,0,3.7,0.4,5.1,1.3c1.4,0.9,2.5,2,3.2,3.4l-3.2,2.2c-0.3-0.6-0.6-1.1-1-1.5s-0.8-0.7-1.3-1c-0.5-0.2-0.9-0.4-1.4-0.5
					c-0.5-0.1-1-0.2-1.5-0.2c-1,0-1.9,0.2-2.7,0.6s-1.4,1-1.9,1.6c-0.5,0.7-0.9,1.4-1.2,2.3c-0.3,0.9-0.4,1.7-0.4,2.5
					c0,0.9,0.2,1.8,0.5,2.7s0.7,1.6,1.3,2.3c0.5,0.7,1.2,1.2,2,1.6c0.8,0.4,1.6,0.6,2.5,0.6c0.5,0,1-0.1,1.5-0.2
					c0.5-0.1,1-0.3,1.5-0.6c0.5-0.3,0.9-0.6,1.3-1c0.4-0.4,0.7-0.9,1-1.5l3.4,2c-0.3,0.8-0.8,1.5-1.5,2.1c-0.6,0.6-1.3,1.1-2.1,1.5
					s-1.6,0.7-2.5,1c-0.9,0.2-1.8,0.3-2.6,0.3c-1.5,0-2.9-0.3-4.2-1c-1.3-0.6-2.3-1.5-3.3-2.5c-0.9-1-1.6-2.2-2.1-3.5
					C225.4,17.8,225.1,16.5,225.1,15.1z"/>
				<path class="st5" d="M269.9,4.6L255,25.9h-4.4l14.9-21.3H269.9z"/>
				<path class="st5" d="M276.2,25.9c0-0.9,0.1-1.7,0.2-2.4c0.1-0.7,0.4-1.4,0.7-2c0.3-0.6,0.8-1.2,1.4-1.7c0.6-0.5,1.4-1.1,2.3-1.6
					c0.8-0.4,1.5-0.8,2.2-1.2c0.6-0.3,1.2-0.6,1.6-0.9c0.4-0.3,0.7-0.6,1-0.9c0.2-0.3,0.3-0.6,0.3-1c0-0.6-0.2-1.1-0.7-1.5
					c-0.5-0.4-1.2-0.6-2.1-0.6c-0.5,0-0.9,0.1-1.3,0.2c-0.4,0.1-0.8,0.3-1.1,0.5c-0.4,0.2-0.7,0.5-1,0.7c-0.3,0.3-0.6,0.6-0.8,0.9
					l-2.6-3c0.3-0.3,0.6-0.6,1.1-0.9c0.5-0.3,1-0.6,1.7-0.9c0.6-0.3,1.4-0.5,2.2-0.7c0.8-0.2,1.6-0.3,2.5-0.3c1,0,1.9,0.1,2.7,0.4
					s1.5,0.6,2,1c0.5,0.5,1,1,1.3,1.6s0.4,1.3,0.4,2.1c0,0.7-0.1,1.3-0.4,1.9s-0.6,1-1,1.4s-0.8,0.8-1.3,1.1
					c-0.5,0.3-0.9,0.6-1.4,0.8c-0.4,0.2-0.8,0.4-1.2,0.7c-0.5,0.3-0.9,0.5-1.4,0.9c-0.5,0.3-0.9,0.6-1.2,1c-0.4,0.3-0.7,0.7-0.9,1
					h9.1v3.6H276.2z"/>
				<path class="st5" d="M313.9,17.1c0,1.3-0.2,2.5-0.6,3.6c-0.4,1.1-0.9,2.1-1.6,2.9c-0.7,0.8-1.5,1.4-2.5,1.9
					c-1,0.5-2,0.7-3.1,0.7c-1.1,0-2.2-0.2-3.1-0.7c-0.9-0.5-1.8-1.1-2.4-1.9c-0.7-0.8-1.2-1.8-1.6-2.9c-0.4-1.1-0.6-2.3-0.6-3.6
					s0.2-2.5,0.6-3.6c0.4-1.1,0.9-2.1,1.6-2.9c0.7-0.8,1.5-1.4,2.4-1.9c0.9-0.5,2-0.7,3.1-0.7c1.1,0,2.1,0.2,3.1,0.7
					c0.9,0.5,1.8,1.1,2.5,1.9c0.7,0.8,1.2,1.8,1.6,2.9C313.7,14.6,313.9,15.8,313.9,17.1z M309.8,17.1c0-0.8-0.1-1.5-0.3-2.2
					c-0.2-0.7-0.4-1.2-0.8-1.7c-0.3-0.5-0.7-0.9-1.2-1.1c-0.5-0.3-0.9-0.4-1.5-0.4c-0.6,0-1.1,0.1-1.5,0.4c-0.5,0.3-0.8,0.6-1.2,1.1
					c-0.3,0.5-0.6,1.1-0.8,1.7c-0.2,0.7-0.3,1.4-0.3,2.2s0.1,1.5,0.3,2.2c0.2,0.7,0.4,1.2,0.8,1.7c0.3,0.5,0.7,0.8,1.2,1.1
					c0.4,0.3,1,0.4,1.5,0.4c0.5,0,1-0.1,1.5-0.4c0.4-0.3,0.8-0.6,1.2-1.1c0.3-0.5,0.6-1.1,0.8-1.7C309.7,18.6,309.8,17.9,309.8,17.1
					z"/>
				<path class="st5" d="M334.4,22.3v3.6h-12.2v-3.6h4.3v-9.1c-0.2,0.2-0.5,0.5-0.9,0.7c-0.4,0.3-0.8,0.5-1.3,0.7
					c-0.5,0.2-0.9,0.4-1.4,0.5c-0.5,0.1-0.9,0.2-1.3,0.2v-3.8c0.4,0,0.8-0.1,1.3-0.3c0.5-0.2,1-0.5,1.5-0.8c0.5-0.3,0.9-0.6,1.3-0.9
					c0.4-0.3,0.6-0.6,0.7-0.7h4.1v13.5H334.4z"/>
			</g>
			<g>
			</g>
			<g class="st4">
				<path class="st5" d="M354.6,12.1h-9.7V8.4h16l-10.6,21.3h-4.6L354.6,12.1z"/>
			</g>
		</g>
		<g>
			<g class="st4">
				<path class="st5" d="M179.4,12.2v13.7h-4.1V4.6h3.2l11.1,14V4.6h4.1v21.3h-3.4L179.4,12.2z"/>
				<path class="st5" d="M205.5,4.6l5.2,10.3l5.3-10.3h4.5l-7.7,13.9v7.4h-4.1v-7.5L201,4.6H205.5z"/>
				<path class="st5" d="M225.1,15.1c0-1.3,0.2-2.6,0.7-3.9c0.5-1.3,1.2-2.4,2.1-3.4c0.9-1,2-1.8,3.3-2.4c1.3-0.6,2.8-0.9,4.4-0.9
					c2,0,3.7,0.4,5.1,1.3c1.4,0.9,2.5,2,3.2,3.4l-3.2,2.2c-0.3-0.6-0.6-1.1-1-1.5s-0.8-0.7-1.3-1c-0.5-0.2-0.9-0.4-1.4-0.5
					c-0.5-0.1-1-0.2-1.5-0.2c-1,0-1.9,0.2-2.7,0.6s-1.4,1-1.9,1.6c-0.5,0.7-0.9,1.4-1.2,2.3c-0.3,0.9-0.4,1.7-0.4,2.5
					c0,0.9,0.2,1.8,0.5,2.7s0.7,1.6,1.3,2.3c0.5,0.7,1.2,1.2,2,1.6c0.8,0.4,1.6,0.6,2.5,0.6c0.5,0,1-0.1,1.5-0.2
					c0.5-0.1,1-0.3,1.5-0.6c0.5-0.3,0.9-0.6,1.3-1c0.4-0.4,0.7-0.9,1-1.5l3.4,2c-0.3,0.8-0.8,1.5-1.5,2.1c-0.6,0.6-1.3,1.1-2.1,1.5
					s-1.6,0.7-2.5,1c-0.9,0.2-1.8,0.3-2.6,0.3c-1.5,0-2.9-0.3-4.2-1c-1.3-0.6-2.3-1.5-3.3-2.5c-0.9-1-1.6-2.2-2.1-3.5
					C225.4,17.8,225.1,16.5,225.1,15.1z"/>
				<path class="st5" d="M269.9,4.6L255,25.9h-4.4l14.9-21.3H269.9z"/>
				<path class="st5" d="M276.2,25.9c0-0.9,0.1-1.7,0.2-2.4c0.1-0.7,0.4-1.4,0.7-2c0.3-0.6,0.8-1.2,1.4-1.7c0.6-0.5,1.4-1.1,2.3-1.6
					c0.8-0.4,1.5-0.8,2.2-1.2c0.6-0.3,1.2-0.6,1.6-0.9c0.4-0.3,0.7-0.6,1-0.9c0.2-0.3,0.3-0.6,0.3-1c0-0.6-0.2-1.1-0.7-1.5
					c-0.5-0.4-1.2-0.6-2.1-0.6c-0.5,0-0.9,0.1-1.3,0.2c-0.4,0.1-0.8,0.3-1.1,0.5c-0.4,0.2-0.7,0.5-1,0.7c-0.3,0.3-0.6,0.6-0.8,0.9
					l-2.6-3c0.3-0.3,0.6-0.6,1.1-0.9c0.5-0.3,1-0.6,1.7-0.9c0.6-0.3,1.4-0.5,2.2-0.7c0.8-0.2,1.6-0.3,2.5-0.3c1,0,1.9,0.1,2.7,0.4
					s1.5,0.6,2,1c0.5,0.5,1,1,1.3,1.6s0.4,1.3,0.4,2.1c0,0.7-0.1,1.3-0.4,1.9s-0.6,1-1,1.4s-0.8,0.8-1.3,1.1
					c-0.5,0.3-0.9,0.6-1.4,0.8c-0.4,0.2-0.8,0.4-1.2,0.7c-0.5,0.3-0.9,0.5-1.4,0.9c-0.5,0.3-0.9,0.6-1.2,1c-0.4,0.3-0.7,0.7-0.9,1
					h9.1v3.6H276.2z"/>
				<path class="st5" d="M313.9,17.1c0,1.3-0.2,2.5-0.6,3.6c-0.4,1.1-0.9,2.1-1.6,2.9c-0.7,0.8-1.5,1.4-2.5,1.9
					c-1,0.5-2,0.7-3.1,0.7c-1.1,0-2.2-0.2-3.1-0.7c-0.9-0.5-1.8-1.1-2.4-1.9c-0.7-0.8-1.2-1.8-1.6-2.9c-0.4-1.1-0.6-2.3-0.6-3.6
					s0.2-2.5,0.6-3.6c0.4-1.1,0.9-2.1,1.6-2.9c0.7-0.8,1.5-1.4,2.4-1.9c0.9-0.5,2-0.7,3.1-0.7c1.1,0,2.1,0.2,3.1,0.7
					c0.9,0.5,1.8,1.1,2.5,1.9c0.7,0.8,1.2,1.8,1.6,2.9C313.7,14.6,313.9,15.8,313.9,17.1z M309.8,17.1c0-0.8-0.1-1.5-0.3-2.2
					c-0.2-0.7-0.4-1.2-0.8-1.7c-0.3-0.5-0.7-0.9-1.2-1.1c-0.5-0.3-0.9-0.4-1.5-0.4c-0.6,0-1.1,0.1-1.5,0.4c-0.5,0.3-0.8,0.6-1.2,1.1
					c-0.3,0.5-0.6,1.1-0.8,1.7c-0.2,0.7-0.3,1.4-0.3,2.2s0.1,1.5,0.3,2.2c0.2,0.7,0.4,1.2,0.8,1.7c0.3,0.5,0.7,0.8,1.2,1.1
					c0.4,0.3,1,0.4,1.5,0.4c0.5,0,1-0.1,1.5-0.4c0.4-0.3,0.8-0.6,1.2-1.1c0.3-0.5,0.6-1.1,0.8-1.7C309.7,18.6,309.8,17.9,309.8,17.1
					z"/>
				<path class="st5" d="M334.4,22.3v3.6h-12.2v-3.6h4.3v-9.1c-0.2,0.2-0.5,0.5-0.9,0.7c-0.4,0.3-0.8,0.5-1.3,0.7
					c-0.5,0.2-0.9,0.4-1.4,0.5c-0.5,0.1-0.9,0.2-1.3,0.2v-3.8c0.4,0,0.8-0.1,1.3-0.3c0.5-0.2,1-0.5,1.5-0.8c0.5-0.3,0.9-0.6,1.3-0.9
					c0.4-0.3,0.6-0.6,0.7-0.7h4.1v13.5H334.4z"/>
			</g>
			<g>
			</g>
			<g class="st4">
				<path class="st5" d="M354.6,12.1h-9.7V8.4h16l-10.6,21.3h-4.6L354.6,12.1z"/>
			</g>
		</g>
	</g>
</g>
<g>
</g>
<g>
	<linearGradient id="SVGID_1_" gradientUnits="userSpaceOnUse" x1="2.2202" y1="14.9995" x2="17.0098" y2="14.9995">
		<stop  offset="0" style="stop-color:#8BE34D"/>
		<stop  offset="0.1969" style="stop-color:#88E150"/>
		<stop  offset="0.3589" style="stop-color:#80DA5A"/>
		<stop  offset="0.5087" style="stop-color:#72CF6C"/>
		<stop  offset="0.651" style="stop-color:#5EC084"/>
		<stop  offset="0.7882" style="stop-color:#45ACA3"/>
		<stop  offset="0.9195" style="stop-color:#2693C9"/>
		<stop  offset="1" style="stop-color:#1082E4"/>
	</linearGradient>
	<polygon class="st6" points="6.4,16.5 15.3,16.5 15.3,13.1 6.4,13.1 6.4,8 16.7,8 16.7,4.3 2.2,4.3 2.2,25.6 17,25.6 17,22 6.4,22 
			"/>
	<linearGradient id="SVGID_2_" gradientUnits="userSpaceOnUse" x1="0" y1="14.9995" x2="160.2715" y2="14.9995">
		<stop  offset="0" style="stop-color:#8BE34D"/>
		<stop  offset="0.1969" style="stop-color:#88E150"/>
		<stop  offset="0.3589" style="stop-color:#80DA5A"/>
		<stop  offset="0.5087" style="stop-color:#72CF6C"/>
		<stop  offset="0.651" style="stop-color:#5EC084"/>
		<stop  offset="0.7882" style="stop-color:#45ACA3"/>
		<stop  offset="0.9195" style="stop-color:#2693C9"/>
		<stop  offset="1" style="stop-color:#1082E4"/>
	</linearGradient>
	<polygon class="st7" points="6.4,16.5 15.3,16.5 15.3,13.1 6.4,13.1 6.4,8 16.7,8 16.7,4.3 2.2,4.3 2.2,25.6 17,25.6 17,22 6.4,22 
			"/>
	<linearGradient id="SVGID_3_" gradientUnits="userSpaceOnUse" x1="22.9199" y1="14.9995" x2="42.48" y2="14.9995">
		<stop  offset="0" style="stop-color:#8BE34D"/>
		<stop  offset="0.1969" style="stop-color:#88E150"/>
		<stop  offset="0.3589" style="stop-color:#80DA5A"/>
		<stop  offset="0.5087" style="stop-color:#72CF6C"/>
		<stop  offset="0.651" style="stop-color:#5EC084"/>
		<stop  offset="0.7882" style="stop-color:#45ACA3"/>
		<stop  offset="0.9195" style="stop-color:#2693C9"/>
		<stop  offset="1" style="stop-color:#1082E4"/>
	</linearGradient>
	<polygon class="st8" points="38,4.3 32.7,12.3 27.4,4.3 22.9,4.3 30.5,15.1 23.2,25.6 27.7,25.6 32.7,18 37.8,25.6 42.2,25.6 
		34.9,15.1 42.5,4.3 	"/>
	<linearGradient id="SVGID_4_" gradientUnits="userSpaceOnUse" x1="0" y1="14.9995" x2="160.2715" y2="14.9995">
		<stop  offset="0" style="stop-color:#8BE34D"/>
		<stop  offset="0.1969" style="stop-color:#88E150"/>
		<stop  offset="0.3589" style="stop-color:#80DA5A"/>
		<stop  offset="0.5087" style="stop-color:#72CF6C"/>
		<stop  offset="0.651" style="stop-color:#5EC084"/>
		<stop  offset="0.7882" style="stop-color:#45ACA3"/>
		<stop  offset="0.9195" style="stop-color:#2693C9"/>
		<stop  offset="1" style="stop-color:#1082E4"/>
	</linearGradient>
	<polygon class="st9" points="38,4.3 32.7,12.3 27.4,4.3 22.9,4.3 30.5,15.1 23.2,25.6 27.7,25.6 32.7,18 37.8,25.6 42.2,25.6 
		34.9,15.1 42.5,4.3 	"/>
	<linearGradient id="SVGID_5_" gradientUnits="userSpaceOnUse" x1="49.5898" y1="14.9995" x2="65.4004" y2="14.9995">
		<stop  offset="0" style="stop-color:#8BE34D"/>
		<stop  offset="0.1969" style="stop-color:#88E150"/>
		<stop  offset="0.3589" style="stop-color:#80DA5A"/>
		<stop  offset="0.5087" style="stop-color:#72CF6C"/>
		<stop  offset="0.651" style="stop-color:#5EC084"/>
		<stop  offset="0.7882" style="stop-color:#45ACA3"/>
		<stop  offset="0.9195" style="stop-color:#2693C9"/>
		<stop  offset="1" style="stop-color:#1082E4"/>
	</linearGradient>
	<path class="st10" d="M63.5,6.6c-0.6-0.7-1.3-1.2-2.1-1.6s-1.7-0.6-2.7-0.6h-9v21.3h4.1v-7.1h5c1,0,1.9-0.2,2.7-0.6
		c0.8-0.4,1.5-0.9,2.1-1.6s1-1.4,1.3-2.3c0.3-0.9,0.5-1.7,0.5-2.6c0-0.9-0.2-1.7-0.5-2.6C64.5,8,64.1,7.3,63.5,6.6z M60.4,13.9
		c-0.5,0.6-1.1,0.9-1.9,0.9h-4.8V8h4.6c0.4,0,0.7,0.1,1.1,0.2c0.3,0.2,0.7,0.4,0.9,0.7c0.3,0.3,0.5,0.7,0.6,1.1s0.2,0.9,0.2,1.5
		C61.2,12.5,60.9,13.3,60.4,13.9z"/>
	<linearGradient id="SVGID_6_" gradientUnits="userSpaceOnUse" x1="0" y1="14.9995" x2="160.2715" y2="14.9995">
		<stop  offset="0" style="stop-color:#8BE34D"/>
		<stop  offset="0.1969" style="stop-color:#88E150"/>
		<stop  offset="0.3589" style="stop-color:#80DA5A"/>
		<stop  offset="0.5087" style="stop-color:#72CF6C"/>
		<stop  offset="0.651" style="stop-color:#5EC084"/>
		<stop  offset="0.7882" style="stop-color:#45ACA3"/>
		<stop  offset="0.9195" style="stop-color:#2693C9"/>
		<stop  offset="1" style="stop-color:#1082E4"/>
	</linearGradient>
	<path class="st11" d="M63.5,6.6c-0.6-0.7-1.3-1.2-2.1-1.6s-1.7-0.6-2.7-0.6h-9v21.3h4.1v-7.1h5c1,0,1.9-0.2,2.7-0.6
		c0.8-0.4,1.5-0.9,2.1-1.6s1-1.4,1.3-2.3c0.3-0.9,0.5-1.7,0.5-2.6c0-0.9-0.2-1.7-0.5-2.6C64.5,8,64.1,7.3,63.5,6.6z M60.4,13.9
		c-0.5,0.6-1.1,0.9-1.9,0.9h-4.8V8h4.6c0.4,0,0.7,0.1,1.1,0.2c0.3,0.2,0.7,0.4,0.9,0.7c0.3,0.3,0.5,0.7,0.6,1.1s0.2,0.9,0.2,1.5
		C61.2,12.5,60.9,13.3,60.4,13.9z"/>
	<linearGradient id="SVGID_7_" gradientUnits="userSpaceOnUse" x1="72.0044" y1="14.9995" x2="92.7944" y2="14.9995">
		<stop  offset="0" style="stop-color:#8BE34D"/>
		<stop  offset="0.1969" style="stop-color:#88E150"/>
		<stop  offset="0.3589" style="stop-color:#80DA5A"/>
		<stop  offset="0.5087" style="stop-color:#72CF6C"/>
		<stop  offset="0.651" style="stop-color:#5EC084"/>
		<stop  offset="0.7882" style="stop-color:#45ACA3"/>
		<stop  offset="0.9195" style="stop-color:#2693C9"/>
		<stop  offset="1" style="stop-color:#1082E4"/>
	</linearGradient>
	<path class="st12" d="M89.9,7.6c-0.9-1-2-1.8-3.3-2.5c-1.3-0.6-2.7-0.9-4.2-0.9c-1.5,0-2.9,0.3-4.2,0.9C77,5.7,75.9,6.5,75,7.5
		s-1.7,2.1-2.2,3.4C72.3,12.2,72,13.6,72,15c0,1.4,0.2,2.7,0.8,4c0.5,1.3,1.2,2.5,2.1,3.5c0.9,1,2,1.8,3.3,2.4s2.7,0.9,4.2,0.9
		c1.5,0,2.9-0.3,4.2-0.9c1.3-0.6,2.4-1.4,3.3-2.4c0.9-1,1.6-2.1,2.2-3.4s0.8-2.6,0.8-4.1c0-1.3-0.3-2.7-0.8-4
		C91.5,9.8,90.8,8.6,89.9,7.6z M88.2,17.6c-0.3,0.8-0.7,1.6-1.2,2.3s-1.2,1.2-1.9,1.6c-0.8,0.4-1.7,0.6-2.7,0.6
		c-1,0-1.9-0.2-2.6-0.6c-0.8-0.4-1.4-0.9-1.9-1.6c-0.5-0.7-0.9-1.4-1.2-2.3c-0.3-0.9-0.4-1.7-0.4-2.7c0-0.9,0.1-1.7,0.4-2.6
		c0.3-0.8,0.7-1.6,1.2-2.3c0.5-0.7,1.2-1.2,1.9-1.6c0.8-0.4,1.7-0.6,2.7-0.6c1,0,1.8,0.2,2.6,0.6c0.8,0.4,1.4,0.9,1.9,1.6
		c0.5,0.7,0.9,1.4,1.2,2.3c0.3,0.9,0.4,1.8,0.4,2.7C88.6,15.9,88.5,16.7,88.2,17.6z"/>
	<g>
		
			<image style="overflow:visible;opacity:0.25;" width="39" height="40" xlink:href="F1464721F20547F.png"  transform="matrix(1 0 0 1 63 -5.1006)">
		</image>
		<g>
			<linearGradient id="SVGID_8_" gradientUnits="userSpaceOnUse" x1="0" y1="14.9995" x2="160.2715" y2="14.9995">
				<stop  offset="0" style="stop-color:#8BE34D"/>
				<stop  offset="0.1969" style="stop-color:#88E150"/>
				<stop  offset="0.3589" style="stop-color:#80DA5A"/>
				<stop  offset="0.5087" style="stop-color:#72CF6C"/>
				<stop  offset="0.651" style="stop-color:#5EC084"/>
				<stop  offset="0.7882" style="stop-color:#45ACA3"/>
				<stop  offset="0.9195" style="stop-color:#2693C9"/>
				<stop  offset="1" style="stop-color:#1082E4"/>
			</linearGradient>
			<path class="st13" d="M89.9,7.6c-0.9-1-2-1.8-3.3-2.5c-1.3-0.6-2.7-0.9-4.2-0.9c-1.5,0-2.9,0.3-4.2,0.9C77,5.7,75.9,6.5,75,7.5
				s-1.7,2.1-2.2,3.4C72.3,12.2,72,13.6,72,15c0,1.4,0.2,2.7,0.8,4c0.5,1.3,1.2,2.5,2.1,3.5c0.9,1,2,1.8,3.3,2.4s2.7,0.9,4.2,0.9
				c1.5,0,2.9-0.3,4.2-0.9c1.3-0.6,2.4-1.4,3.3-2.4c0.9-1,1.6-2.1,2.2-3.4s0.8-2.6,0.8-4.1c0-1.3-0.3-2.7-0.8-4
				C91.5,9.8,90.8,8.6,89.9,7.6z M88.2,17.6c-0.3,0.8-0.7,1.6-1.2,2.3s-1.2,1.2-1.9,1.6c-0.8,0.4-1.7,0.6-2.7,0.6
				c-1,0-1.9-0.2-2.6-0.6c-0.8-0.4-1.4-0.9-1.9-1.6c-0.5-0.7-0.9-1.4-1.2-2.3c-0.3-0.9-0.4-1.7-0.4-2.7c0-0.9,0.1-1.7,0.4-2.6
				c0.3-0.8,0.7-1.6,1.2-2.3c0.5-0.7,1.2-1.2,1.9-1.6c0.8-0.4,1.7-0.6,2.7-0.6c1,0,1.8,0.2,2.6,0.6c0.8,0.4,1.4,0.9,1.9,1.6
				c0.5,0.7,0.9,1.4,1.2,2.3c0.3,0.9,0.4,1.8,0.4,2.7C88.6,15.9,88.5,16.7,88.2,17.6z"/>
		</g>
	</g>
</g>
</svg>
