<?xml version="1.0" encoding="utf-8"?>
<!-- Generator: Adobe Illustrator 21.0.2, SVG Export Plug-In . SVG Version: 6.00 Build 0)  -->
<svg version="1.1" id="Layer_1" xmlns="http://www.w3.org/2000/svg" xmlns:xlink="http://www.w3.org/1999/xlink" x="0px" y="0px"
	 viewBox="0 0 923.5 373" style="enable-background:new 0 0 923.5 373;" xml:space="preserve">
<style type="text/css">
	.st0{display:none;}
	.st1{display:inline;fill:#128DB6;}
	.st2{display:inline;opacity:0.75;fill:#FFFFFF;enable-background:new    ;}
	.st3{display:inline;}
	.st4{fill:#FFFFFF;}
	.st5{display:none;stroke:#FFFFFF;stroke-miterlimit:10;}
	.st6{display:none;fill:#128DB6;}
</style>
<g id="Layer_1_1_" class="st0">
	<rect class="st1" width="632" height="373"/>
	<polygon class="st2" points="6.5,11.5 6.5,351.5 606.5,351.5 	"/>
	<g class="st3">
		<path class="st4" d="M68.5,233.4v5.3H47v-31h21.2v5.3H53v7.5h13.1v4.9H53v8.1h15.5V233.4z"/>
		<path class="st4" d="M85.2,207.7l7.7,11.5l7.7-11.5h6.5L96,223.4l10.7,15.3h-6.5l-7.3-11.1l-7.4,11.1H79l10.7-15.3l-11.1-15.7
			H85.2z"/>
		<path class="st4" d="M119,238.7v-31h13.2c1.4,0,2.7,0.3,4,0.9s2.3,1.4,3.1,2.4c0.9,1,1.6,2.1,2.1,3.3s0.7,2.5,0.7,3.7
			c0,1.3-0.2,2.6-0.7,3.8s-1.1,2.3-2,3.3c-0.8,1-1.9,1.7-3.1,2.3c-1.2,0.6-2.5,0.9-3.9,0.9H125v10.4L119,238.7L119,238.7z M125,223
			h7c1.1,0,2-0.5,2.8-1.4c0.7-0.9,1.1-2.1,1.1-3.7c0-0.8-0.1-1.5-0.3-2.1s-0.5-1.2-0.9-1.6c-0.4-0.4-0.8-0.8-1.3-1s-1-0.3-1.6-0.3
			H125V223z"/>
		<path class="st4" d="M168.2,238.9c-2.3,0-4.3-0.4-6.2-1.3c-1.9-0.9-3.4-2.1-4.8-3.5c-1.3-1.5-2.4-3.2-3.1-5
			c-0.7-1.9-1.1-3.8-1.1-5.8c0-2.1,0.4-4.1,1.2-5.9c0.8-1.9,1.8-3.6,3.2-5c1.4-1.5,3-2.6,4.8-3.5s3.9-1.3,6.1-1.3
			c2.2,0,4.3,0.5,6.1,1.4c1.9,0.9,3.4,2.1,4.7,3.6s2.3,3.2,3.1,5.1c0.7,1.9,1.1,3.8,1.1,5.8c0,2.1-0.4,4-1.1,5.9
			c-0.8,1.9-1.8,3.5-3.1,5c-1.3,1.4-2.9,2.6-4.8,3.5C172.4,238.5,170.4,238.9,168.2,238.9z M159.2,223.2c0,1.3,0.2,2.6,0.6,3.9
			c0.4,1.3,1,2.4,1.8,3.3c0.8,1,1.7,1.7,2.8,2.3s2.4,0.9,3.8,0.9c1.5,0,2.7-0.3,3.9-0.9c1.1-0.6,2.1-1.4,2.8-2.4
			c0.8-1,1.4-2.1,1.7-3.3c0.4-1.2,0.6-2.5,0.6-3.8s-0.2-2.6-0.6-3.9c-0.4-1.3-1-2.4-1.8-3.3c-0.8-1-1.7-1.7-2.8-2.3
			s-2.4-0.9-3.8-0.9c-1.5,0-2.8,0.3-3.9,0.9s-2.1,1.4-2.8,2.4c-0.8,1-1.3,2.1-1.7,3.3C159.4,220.6,159.2,221.9,159.2,223.2z"/>
		<path class="st4" d="M215.3,215.8c-0.2-0.2-0.6-0.5-1.1-0.8c-0.5-0.4-1.2-0.7-2-1s-1.6-0.6-2.5-0.9c-0.9-0.2-1.8-0.3-2.8-0.3
			c-1.7,0-2.9,0.3-3.7,0.9c-0.8,0.6-1.2,1.5-1.2,2.6c0,0.6,0.2,1.2,0.5,1.6c0.3,0.4,0.8,0.8,1.3,1.1c0.6,0.3,1.3,0.6,2.2,0.9
			s1.9,0.5,3.1,0.8c1.5,0.4,2.9,0.8,4.1,1.3c1.2,0.5,2.3,1,3.1,1.7c0.9,0.7,1.5,1.5,2,2.5s0.7,2.2,0.7,3.6c0,1.7-0.3,3.1-0.9,4.3
			c-0.6,1.2-1.5,2.1-2.5,2.9c-1.1,0.7-2.3,1.3-3.7,1.6s-2.8,0.5-4.4,0.5c-2.3,0-4.6-0.3-6.9-1c-2.3-0.7-4.3-1.7-6.1-3l2.7-5.2
			c0.3,0.3,0.7,0.6,1.4,1s1.5,0.8,2.4,1.3c0.9,0.4,2,0.8,3.1,1.1s2.3,0.4,3.5,0.4c3.3,0,5-1.1,5-3.2c0-0.7-0.2-1.2-0.6-1.7
			c-0.4-0.5-0.9-0.9-1.6-1.2s-1.5-0.7-2.5-1s-2.1-0.6-3.3-1c-1.5-0.4-2.8-0.9-3.9-1.3c-1.1-0.5-2-1-2.7-1.7s-1.3-1.4-1.6-2.3
			c-0.4-0.9-0.5-1.9-0.5-3.1c0-1.6,0.3-3,0.9-4.2c0.6-1.2,1.4-2.2,2.4-3.1c1-0.8,2.2-1.4,3.6-1.9c1.4-0.4,2.8-0.6,4.4-0.6
			c2.2,0,4.2,0.3,6,1s3.4,1.5,4.8,2.4L215.3,215.8z"/>
		<path class="st4" d="M253.9,233.4v5.3h-21.6v-31h21.2v5.3h-15.1v7.5h13.1v4.9h-13.1v8.1h15.5V233.4z"/>
		<path class="st4" d="M267.3,238.7v-31h11.3c2.5,0,4.8,0.4,6.7,1.2c1.9,0.8,3.5,1.9,4.8,3.3s2.2,3,2.9,4.9c0.6,1.9,1,3.9,1,6
			c0,2.4-0.4,4.5-1.1,6.4s-1.7,3.5-3.1,4.9c-1.3,1.4-3,2.4-4.8,3.1c-1.9,0.7-4,1.1-6.3,1.1h-11.4V238.7z M287.8,223.1
			c0-1.5-0.2-2.9-0.6-4.1c-0.4-1.3-1-2.3-1.8-3.2s-1.8-1.6-2.9-2.1c-1.2-0.5-2.5-0.7-3.9-0.7h-5.2v20.5h5.2c1.5,0,2.8-0.3,4-0.8
			s2.1-1.2,2.9-2.2c0.8-0.9,1.4-2,1.8-3.3C287.6,225.9,287.8,224.6,287.8,223.1z"/>
	</g>
	<g class="st3">
		<path class="st4" d="M53,267.6v20.9h-6.4v-32.7h4.9l17,21.4v-21.4H75v32.6h-5.2L53,267.6z"/>
		<path class="st4" d="M90.1,255.9l8.1,15.7l8.2-15.7h6.9l-11.9,21.3v11.4H95v-11.5l-11.8-21.2L90.1,255.9L90.1,255.9z"/>
		<path class="st4" d="M117.2,272c0-2,0.4-4,1.1-5.9s1.8-3.7,3.2-5.2c1.4-1.5,3.1-2.8,5.1-3.7c2-1,4.3-1.4,6.8-1.4
			c3,0,5.6,0.7,7.8,2s3.8,3,4.9,5.2l-4.9,3.4c-0.4-0.9-1-1.7-1.6-2.3c-0.6-0.6-1.3-1.1-2-1.5s-1.4-0.6-2.2-0.8
			c-0.8-0.2-1.5-0.3-2.3-0.3c-1.6,0-3,0.3-4.2,1c-1.2,0.6-2.2,1.5-2.9,2.5c-0.8,1-1.4,2.2-1.8,3.5s-0.6,2.6-0.6,3.9
			c0,1.4,0.2,2.8,0.7,4.2c0.5,1.3,1.1,2.5,2,3.5c0.8,1,1.9,1.8,3,2.4c1.2,0.6,2.5,0.9,3.9,0.9c0.7,0,1.5-0.1,2.3-0.3
			c0.8-0.2,1.6-0.5,2.3-0.9s1.4-0.9,2-1.5s1.1-1.4,1.5-2.3l5.2,3c-0.5,1.2-1.3,2.3-2.2,3.2c-1,0.9-2.1,1.7-3.3,2.4
			c-1.2,0.6-2.5,1.1-3.9,1.5c-1.4,0.3-2.7,0.5-4.1,0.5c-2.3,0-4.5-0.5-6.4-1.5s-3.6-2.3-5-3.8c-1.4-1.6-2.5-3.4-3.3-5.4
			C117.6,276.1,117.2,274.1,117.2,272z"/>
		<path class="st4" d="M182.8,255.9L160,288.6h-6.8l22.8-32.7L182.8,255.9L182.8,255.9z"/>
		<path class="st4" d="M189.4,288.6c0-1.4,0.1-2.6,0.3-3.8c0.2-1.1,0.6-2.2,1.1-3.1c0.5-1,1.3-1.8,2.2-2.7c0.9-0.8,2.1-1.6,3.6-2.4
			c1.3-0.7,2.4-1.3,3.3-1.8c1-0.5,1.8-1,2.4-1.4c0.6-0.4,1.1-0.9,1.5-1.3c0.3-0.4,0.5-1,0.5-1.5c0-0.9-0.4-1.7-1.1-2.4
			c-0.7-0.7-1.8-1-3.2-1c-0.7,0-1.4,0.1-2,0.3c-0.6,0.2-1.2,0.5-1.7,0.8s-1,0.7-1.5,1.1c-0.4,0.4-0.9,0.9-1.2,1.3l-4-4.6
			c0.4-0.4,1-0.9,1.7-1.4s1.6-1,2.6-1.4s2.1-0.8,3.3-1.1c1.2-0.3,2.5-0.4,3.9-0.4c1.6,0,3,0.2,4.2,0.6s2.3,0.9,3.1,1.6
			s1.5,1.5,1.9,2.5s0.7,2,0.7,3.2c0,1.1-0.2,2-0.6,2.9c-0.4,0.8-0.9,1.6-1.5,2.2s-1.3,1.2-2,1.7s-1.4,0.9-2.1,1.3
			c-0.6,0.3-1.2,0.7-1.9,1.1s-1.4,0.8-2.1,1.3s-1.3,1-1.9,1.5c-0.6,0.5-1,1-1.3,1.5h13.9v5.6h-22.1V288.6z"/>
		<path class="st4" d="M244.2,275.1c0,2-0.3,3.9-0.9,5.6c-0.6,1.7-1.4,3.2-2.5,4.4c-1.1,1.2-2.3,2.2-3.8,2.9c-1.5,0.7-3,1-4.7,1
			s-3.3-0.3-4.7-1s-2.7-1.7-3.8-2.9c-1.1-1.2-1.9-2.7-2.5-4.4c-0.6-1.7-0.9-3.6-0.9-5.6s0.3-3.9,0.9-5.6c0.6-1.7,1.4-3.2,2.5-4.4
			c1.1-1.2,2.3-2.2,3.8-2.9c1.4-0.7,3-1.1,4.7-1.1s3.3,0.4,4.7,1.1c1.5,0.7,2.7,1.7,3.8,2.9c1.1,1.2,1.9,2.7,2.5,4.4
			C243.9,271.2,244.2,273.1,244.2,275.1z M238,275.1c0-1.2-0.1-2.4-0.4-3.4c-0.3-1-0.7-1.9-1.2-2.6s-1.1-1.3-1.8-1.7
			c-0.7-0.4-1.4-0.6-2.3-0.6c-0.9,0-1.6,0.2-2.3,0.6s-1.3,1-1.8,1.7s-0.9,1.6-1.2,2.6s-0.4,2.2-0.4,3.4c0,1.2,0.1,2.3,0.4,3.4
			c0.3,1,0.7,1.9,1.2,2.6s1.1,1.3,1.8,1.7c0.7,0.4,1.5,0.6,2.3,0.6s1.6-0.2,2.3-0.6s1.3-1,1.8-1.7s0.9-1.6,1.2-2.6
			C237.9,277.4,238,276.3,238,275.1z"/>
		<path class="st4" d="M272.7,283v5.6H254V283h6.5v-14c-0.3,0.4-0.7,0.7-1.3,1.1s-1.3,0.7-2,1.1c-0.7,0.3-1.4,0.6-2.2,0.8
			c-0.8,0.2-1.4,0.3-2,0.3v-5.8c0.6,0,1.2-0.2,2-0.5s1.6-0.8,2.3-1.3c0.8-0.5,1.4-1,2-1.5s0.9-0.9,1.1-1.1h6.3V283H272.7z"/>
		<path class="st4" d="M293.7,267.3h-14.9v-5.6h24.6l-16.2,32.7h-7L293.7,267.3z"/>
	</g>
</g>
<rect x="-38" y="-77" class="st5" width="980" height="574"/>
<g id="Layer_1_copy">
	<rect class="st6" width="632" height="373"/>
	<g>
		<path class="st4" d="M186.1,184.1c-0.9-1.1-2-2-3.2-2.6c-1.3-0.6-2.7-1-4.3-1c-1.7,0-3.1,0.3-4.4,1c-1.3,0.7-2.4,1.6-3.2,2.7
			c-0.9,1.1-1.5,2.4-2,3.8c-0.4,1.4-0.7,2.8-0.7,4.3s0.2,3,0.7,4.4s1.1,2.7,2,3.8s2,2,3.2,2.6c1.3,0.7,2.7,1,4.3,1
			c1.7,0,3.1-0.3,4.4-1c1.3-0.7,2.3-1.6,3.2-2.7c0.9-1.1,1.5-2.4,2-3.8c0.4-1.4,0.7-2.8,0.7-4.3s-0.2-3-0.7-4.4
			C187.7,186.5,187,185.2,186.1,184.1z"/>
		<path class="st4" d="M255.9,244.3c-0.6-0.8-1.3-1.5-2-1.9c-0.8-0.5-1.6-0.7-2.6-0.7s-1.9,0.2-2.6,0.7c-0.8,0.5-1.5,1.1-2,1.9
			c-0.6,0.8-1,1.8-1.3,3s-0.5,2.4-0.5,3.8c0,1.4,0.2,2.7,0.5,3.8c0.3,1.1,0.8,2.1,1.3,3c0.6,0.8,1.3,1.5,2,1.9
			c0.8,0.5,1.7,0.7,2.6,0.7c0.9,0,1.8-0.2,2.6-0.7s1.5-1.1,2-1.9c0.6-0.8,1-1.8,1.3-3c0.3-1.1,0.5-2.4,0.5-3.8
			c0-1.4-0.2-2.7-0.5-3.8C257,246.2,256.5,245.2,255.9,244.3z"/>
		<path class="st4" d="M313.6,196.9c0.5-1.4,0.7-3,0.7-4.6c0-1.7-0.2-3.2-0.7-4.7c-0.5-1.4-1.1-2.6-2-3.7c-0.9-1-2-1.8-3.3-2.4
			c-1.3-0.6-2.8-0.8-4.4-0.8h-6v23.2h6c1.7,0,3.2-0.3,4.5-0.9c1.3-0.6,2.4-1.4,3.3-2.5C312.5,199.5,313.1,198.3,313.6,196.9z"/>
		<path class="st4" d="M140.6,190.6c0.8-1,1.3-2.4,1.3-4.2c0-0.9-0.1-1.7-0.4-2.4c-0.3-0.7-0.6-1.3-1-1.8s-0.9-0.9-1.5-1.1
			c-0.6-0.2-1.2-0.4-1.8-0.4h-7.6v11.4h7.9C138.8,192.1,139.8,191.6,140.6,190.6z"/>
		<path class="st4" d="M0,33v340h923.5L0,33z M251.3,174.7h24v6h-17.2v8.5H273v5.6h-14.8v9.2h17.6v6h-24.5L251.3,174.7L251.3,174.7z
			 M122.7,174.7h14.9c1.6,0,3.1,0.3,4.5,1s2.6,1.6,3.5,2.7c1,1.1,1.8,2.4,2.3,3.8c0.6,1.4,0.8,2.8,0.8,4.2c0,1.5-0.3,2.9-0.8,4.3
			c-0.5,1.4-1.3,2.7-2.2,3.7c-1,1.1-2.1,2-3.5,2.6c-1.4,0.7-2.8,1-4.5,1h-8.3v11.8h-6.8v-35.1H122.7z M41,174.7h24v6H47.9v8.5h14.8
			v5.6H47.9v9.2h17.6v6H41V174.7z M72.8,266.5H67l-19.1-23.8v23.8h-7.2v-37.1h5.6l19.3,24.3v-24.3h7.2
			C72.8,229.4,72.8,266.5,72.8,266.5z M76.9,174.7h7.4l8.8,13.1l8.7-13.1h7.4l-12.6,17.9l12.2,17.4h-7.4l-8.3-12.6L84.7,210h-7.4
			l12.2-17.4L76.9,174.7z M102.7,253.5v12.9h-7.2v-13.1l-13.4-24h7.8l9.1,17.9l9.3-17.9h7.8L102.7,253.5z M151.4,261.9
			c-1.1,1.1-2.3,2-3.7,2.7s-2.8,1.3-4.4,1.7c-1.6,0.4-3.1,0.6-4.6,0.6c-2.6,0-5.1-0.6-7.3-1.7s-4.1-2.6-5.7-4.4s-2.8-3.8-3.7-6.1
			c-0.9-2.3-1.3-4.6-1.3-7c0-2.3,0.4-4.5,1.2-6.7c0.8-2.2,2-4.2,3.6-5.9s3.5-3.2,5.7-4.2c2.3-1.1,4.8-1.6,7.7-1.6
			c3.4,0,6.4,0.7,8.9,2.2s4.3,3.4,5.6,5.8l-5.5,3.8c-0.5-1-1.1-1.9-1.8-2.6c-0.7-0.7-1.4-1.3-2.2-1.7s-1.6-0.7-2.5-0.9
			s-1.7-0.3-2.6-0.3c-1.8,0-3.4,0.4-4.7,1.1c-1.3,0.7-2.5,1.7-3.3,2.8c-0.9,1.2-1.6,2.5-2,4c-0.5,1.5-0.7,2.9-0.7,4.4
			c0,1.6,0.3,3.2,0.8,4.7s1.3,2.8,2.2,4c1,1.1,2.1,2.1,3.4,2.8c1.3,0.7,2.8,1,4.4,1c0.8,0,1.7-0.1,2.6-0.3c0.9-0.2,1.8-0.5,2.6-1
			s1.6-1,2.3-1.7s1.3-1.6,1.7-2.6l5.9,3.4C153.3,259.6,152.5,260.8,151.4,261.9z M169.2,266.5h-7.7l25.8-37.1h7.8L169.2,266.5z
			 M194.5,199.1c-0.9,2.1-2.1,4-3.6,5.7c-1.5,1.6-3.3,2.9-5.5,3.9c-2.1,1-4.4,1.5-6.9,1.5c-2.6,0-4.9-0.5-7-1.5s-3.9-2.3-5.4-4
			s-2.7-3.6-3.5-5.7c-0.8-2.1-1.2-4.3-1.2-6.6s0.4-4.6,1.3-6.7c0.9-2.1,2.1-4.1,3.6-5.7c1.5-1.7,3.4-3,5.5-3.9s4.4-1.5,6.9-1.5
			s4.9,0.5,7,1.6c2.1,1,3.9,2.4,5.4,4.1c1.5,1.7,2.6,3.6,3.5,5.8c0.8,2.2,1.2,4.3,1.2,6.5C195.8,194.7,195.4,197,194.5,199.1z
			 M227.8,266.5h-25.2c0-1.6,0.1-3,0.4-4.3c0.2-1.3,0.7-2.4,1.3-3.5s1.4-2.1,2.5-3s2.4-1.9,4-2.8c1.4-0.8,2.7-1.4,3.8-2
			s2-1.1,2.7-1.6s1.3-1,1.7-1.5s0.6-1.1,0.6-1.7c0-1-0.4-1.9-1.3-2.7c-0.8-0.7-2-1.1-3.6-1.1c-0.8,0-1.6,0.1-2.3,0.3s-1.3,0.5-2,0.9
			c-0.6,0.4-1.2,0.8-1.7,1.3s-1,1-1.4,1.5l-4.5-5.2c0.5-0.5,1.1-1,1.9-1.6c0.8-0.6,1.8-1.1,3-1.6c1.1-0.5,2.4-0.9,3.8-1.3
			c1.4-0.3,2.8-0.5,4.4-0.5c1.8,0,3.4,0.2,4.8,0.7c1.4,0.4,2.6,1,3.5,1.8c1,0.8,1.7,1.7,2.2,2.8s0.8,2.3,0.8,3.6
			c0,1.2-0.2,2.3-0.7,3.2s-1,1.8-1.7,2.5s-1.5,1.4-2.3,1.9s-1.6,1-2.4,1.4c-0.6,0.3-1.3,0.7-2.1,1.2s-1.6,0.9-2.4,1.5
			c-0.8,0.5-1.5,1.1-2.2,1.7s-1.2,1.1-1.5,1.7h15.8L227.8,266.5L227.8,266.5z M235.1,204.7c-0.7,1.3-1.7,2.4-2.9,3.2
			s-2.6,1.4-4.2,1.8c-1.6,0.4-3.2,0.6-4.9,0.6c-2.6,0-5.3-0.4-7.8-1.2c-2.6-0.8-4.9-1.9-6.9-3.4l3-5.9c0.3,0.3,0.8,0.7,1.6,1.2
			s1.7,1,2.8,1.4c1.1,0.5,2.2,0.9,3.5,1.2s2.6,0.5,4,0.5c3.8,0,5.7-1.2,5.7-3.6c0-0.8-0.2-1.4-0.6-1.9c-0.4-0.5-1-1-1.8-1.4
			s-1.8-0.8-2.9-1.1c-1.1-0.3-2.4-0.7-3.8-1.1c-1.7-0.5-3.1-1-4.4-1.5c-1.2-0.5-2.3-1.2-3.1-1.9s-1.4-1.6-1.9-2.6
			c-0.4-1-0.6-2.1-0.6-3.5c0-1.8,0.3-3.4,1-4.8c0.7-1.4,1.6-2.5,2.8-3.5c1.2-0.9,2.5-1.6,4.1-2.1s3.2-0.7,5-0.7
			c2.5,0,4.8,0.4,6.8,1.2c2.1,0.8,3.9,1.7,5.5,2.8l-3,5.6c-0.2-0.2-0.7-0.5-1.3-0.9s-1.4-0.8-2.2-1.2c-0.9-0.4-1.8-0.7-2.9-1
			c-1-0.3-2.1-0.4-3.1-0.4c-1.9,0-3.3,0.3-4.2,1s-1.4,1.7-1.4,2.9c0,0.7,0.2,1.3,0.5,1.8s0.9,0.9,1.5,1.3c0.7,0.4,1.5,0.7,2.5,1
			s2.2,0.6,3.5,0.9c1.7,0.5,3.3,1,4.7,1.5s2.6,1.2,3.6,2s1.7,1.7,2.3,2.9c0.5,1.1,0.8,2.5,0.8,4.1
			C236.2,201.7,235.9,203.3,235.1,204.7z M263.8,257.5c-0.7,1.9-1.6,3.6-2.8,5c-1.2,1.4-2.6,2.5-4.3,3.3c-1.7,0.8-3.4,1.2-5.4,1.2
			s-3.7-0.4-5.4-1.2c-1.6-0.8-3.1-1.9-4.3-3.3s-2.1-3.1-2.8-5s-1-4-1-6.3s0.3-4.4,1-6.3c0.7-1.9,1.6-3.6,2.8-5s2.6-2.5,4.3-3.3
			c1.6-0.8,3.4-1.2,5.4-1.2c1.9,0,3.7,0.4,5.4,1.2c1.7,0.8,3.1,1.9,4.3,3.3c1.2,1.4,2.1,3.1,2.8,5c0.7,1.9,1,4,1,6.3
			S264.5,255.6,263.8,257.5z M297.1,266.5h-21.2v-6.3h7.4v-15.8c-0.3,0.4-0.8,0.8-1.5,1.3c-0.7,0.4-1.4,0.8-2.2,1.2
			c-0.8,0.4-1.6,0.7-2.5,0.9s-1.6,0.4-2.3,0.4v-6.5c0.6,0,1.4-0.2,2.3-0.6c0.9-0.4,1.8-0.9,2.7-1.4c0.9-0.6,1.6-1.1,2.3-1.6
			c0.6-0.5,1.1-1,1.2-1.3h7.2v23.5h6.6V266.5z M291,209.9v-35.2h12.8c2.9,0,5.4,0.5,7.6,1.4s4,2.2,5.4,3.8c1.5,1.6,2.5,3.4,3.3,5.6
			c0.7,2.1,1.1,4.4,1.1,6.8c0,2.7-0.4,5.1-1.2,7.3c-0.8,2.2-2,4-3.5,5.6c-1.5,1.5-3.3,2.7-5.5,3.6c-2.1,0.8-4.5,1.3-7.2,1.3H291
			V209.9z M305.7,273.1l15.3-30.7h-16.9V236H332l-18.4,37.1H305.7z"/>
	</g>
</g>
</svg>
